# xmcd
# 
# Track frame offsets:
#     150
#     18002
#     40867
#     58482
#     75077
#     91480
#     109212
#     128280
#     147300
#     163295
#     181690
#     199657
#     216110
#     231562
#     251945
#     277355
#     297535
# 
# Disc length: 4202
# 
# Revision: 2
# Processed by: cddbd v1.5.2PL0 Copyright (c) Steve Scherf et al.
# Submitted via: BonkEnc v1.0.8
# 
DISCID=00106811
DTITLE=Various Artist - MEGA HITS '80s - 03
DYEAR=1994
DGENRE=Rock
TTITLE0=Huey Lewis and The News - Power Of Love
TTITLE1=Huey Lewis and The News - Heart Of Rock'n Roll
TTITLE2=Huey Lewis and The News - If This Is It
TTITLE3=Heart - Alone
TTITLE4=J. Geils Band - Centerfold
TTITLE5=America - You Can Do Magic
TTITLE6=Little River Band - Reminiscing
TTITLE7=Robert John - Sad Eyes
TTITLE8=Bob Welch - Ebony Eyes
TTITLE9=Stevie Nicks - Stop Draggin' My Heart Around
TTITLE10=Blondie - Heart Of Glass
TTITLE11=Sheena Easton - Modern Girl
TTITLE12=Juice Newton - Queen Of Hearts
TTITLE13=Robbie Nevil - C'est La Vie
TTITLE14=Spandau Ballet - True
TTITLE15=John Waite - Missing You
TTITLE16=John Lennon - (Just Like) Starting Over
EXTD=YEAR: 1994
EXTT0=
EXTT1=
EXTT2=
EXTT3=
EXTT4=
EXTT5=
EXTT6=
EXTT7=
EXTT8=
EXTT9=
EXTT10=
EXTT11=
EXTT12=
EXTT13=
EXTT14=
EXTT15=
EXTT16=
PLAYORDER=
